<mxfile host="app.diagrams.net" agent="Mozilla/5.0 (Windows NT 10.0; Win64; x64; rv:128.0) Gecko/20100101 Firefox/128.0" version="24.8.4">
  <diagram id="C5RBs43oDa-KdzZeNtuy" name="Page-1">
    <mxGraphModel dx="878" dy="1000" grid="1" gridSize="10" guides="1" tooltips="1" connect="1" arrows="1" fold="1" page="1" pageScale="1" pageWidth="827" pageHeight="1169" math="0" shadow="0">
      <root>
        <mxCell id="WIyWlLk6GJQsqaUBKTNV-0" />
        <mxCell id="WIyWlLk6GJQsqaUBKTNV-1" parent="WIyWlLk6GJQsqaUBKTNV-0" />
        <mxCell id="ZSXGiZuAVmpcLqcphuI8-1" value="&lt;div&gt;START&lt;/div&gt;" style="ellipse;whiteSpace=wrap;html=1;" vertex="1" parent="WIyWlLk6GJQsqaUBKTNV-1">
          <mxGeometry x="210" y="40" width="100" height="50" as="geometry" />
        </mxCell>
        <mxCell id="ZSXGiZuAVmpcLqcphuI8-15" style="edgeStyle=orthogonalEdgeStyle;rounded=0;orthogonalLoop=1;jettySize=auto;html=1;entryX=0.5;entryY=0;entryDx=0;entryDy=0;" edge="1" parent="WIyWlLk6GJQsqaUBKTNV-1" source="ZSXGiZuAVmpcLqcphuI8-3" target="ZSXGiZuAVmpcLqcphuI8-4">
          <mxGeometry relative="1" as="geometry" />
        </mxCell>
        <mxCell id="ZSXGiZuAVmpcLqcphuI8-3" value="INPUT A" style="shape=parallelogram;perimeter=parallelogramPerimeter;whiteSpace=wrap;html=1;fixedSize=1;" vertex="1" parent="WIyWlLk6GJQsqaUBKTNV-1">
          <mxGeometry x="200" y="210" width="120" height="60" as="geometry" />
        </mxCell>
        <mxCell id="ZSXGiZuAVmpcLqcphuI8-16" style="edgeStyle=orthogonalEdgeStyle;rounded=0;orthogonalLoop=1;jettySize=auto;html=1;entryX=0;entryY=0.5;entryDx=0;entryDy=0;" edge="1" parent="WIyWlLk6GJQsqaUBKTNV-1" source="ZSXGiZuAVmpcLqcphuI8-4" target="ZSXGiZuAVmpcLqcphuI8-7">
          <mxGeometry relative="1" as="geometry" />
        </mxCell>
        <mxCell id="ZSXGiZuAVmpcLqcphuI8-4" value="0 &amp;lt; A AND A &amp;lt; 10?" style="rhombus;whiteSpace=wrap;html=1;" vertex="1" parent="WIyWlLk6GJQsqaUBKTNV-1">
          <mxGeometry x="190" y="310" width="130" height="130" as="geometry" />
        </mxCell>
        <mxCell id="ZSXGiZuAVmpcLqcphuI8-18" style="edgeStyle=orthogonalEdgeStyle;rounded=0;orthogonalLoop=1;jettySize=auto;html=1;entryX=0.5;entryY=0;entryDx=0;entryDy=0;" edge="1" parent="WIyWlLk6GJQsqaUBKTNV-1" source="ZSXGiZuAVmpcLqcphuI8-5" target="ZSXGiZuAVmpcLqcphuI8-10">
          <mxGeometry relative="1" as="geometry" />
        </mxCell>
        <mxCell id="ZSXGiZuAVmpcLqcphuI8-24" style="edgeStyle=orthogonalEdgeStyle;rounded=0;orthogonalLoop=1;jettySize=auto;html=1;entryX=0;entryY=0.5;entryDx=0;entryDy=0;" edge="1" parent="WIyWlLk6GJQsqaUBKTNV-1" source="ZSXGiZuAVmpcLqcphuI8-5" target="ZSXGiZuAVmpcLqcphuI8-9">
          <mxGeometry relative="1" as="geometry" />
        </mxCell>
        <mxCell id="ZSXGiZuAVmpcLqcphuI8-5" value="20 &amp;lt; A AND A &amp;lt; 30" style="rhombus;whiteSpace=wrap;html=1;" vertex="1" parent="WIyWlLk6GJQsqaUBKTNV-1">
          <mxGeometry x="185" y="640" width="130" height="130" as="geometry" />
        </mxCell>
        <mxCell id="ZSXGiZuAVmpcLqcphuI8-6" value="PRINT &quot;Please input a number&quot;" style="shape=parallelogram;perimeter=parallelogramPerimeter;whiteSpace=wrap;html=1;fixedSize=1;" vertex="1" parent="WIyWlLk6GJQsqaUBKTNV-1">
          <mxGeometry x="190" y="120" width="155" height="60" as="geometry" />
        </mxCell>
        <mxCell id="ZSXGiZuAVmpcLqcphuI8-28" style="edgeStyle=orthogonalEdgeStyle;rounded=0;orthogonalLoop=1;jettySize=auto;html=1;" edge="1" parent="WIyWlLk6GJQsqaUBKTNV-1" source="ZSXGiZuAVmpcLqcphuI8-7">
          <mxGeometry relative="1" as="geometry">
            <mxPoint x="570" y="540" as="targetPoint" />
          </mxGeometry>
        </mxCell>
        <mxCell id="ZSXGiZuAVmpcLqcphuI8-7" value="PRINT &quot;BLUE&quot;" style="shape=parallelogram;perimeter=parallelogramPerimeter;whiteSpace=wrap;html=1;fixedSize=1;" vertex="1" parent="WIyWlLk6GJQsqaUBKTNV-1">
          <mxGeometry x="390" y="345" width="120" height="60" as="geometry" />
        </mxCell>
        <mxCell id="ZSXGiZuAVmpcLqcphuI8-27" style="edgeStyle=orthogonalEdgeStyle;rounded=0;orthogonalLoop=1;jettySize=auto;html=1;" edge="1" parent="WIyWlLk6GJQsqaUBKTNV-1" source="ZSXGiZuAVmpcLqcphuI8-8">
          <mxGeometry relative="1" as="geometry">
            <mxPoint x="570" y="700" as="targetPoint" />
          </mxGeometry>
        </mxCell>
        <mxCell id="ZSXGiZuAVmpcLqcphuI8-8" value="PRINT &quot;RED&quot;" style="shape=parallelogram;perimeter=parallelogramPerimeter;whiteSpace=wrap;html=1;fixedSize=1;" vertex="1" parent="WIyWlLk6GJQsqaUBKTNV-1">
          <mxGeometry x="390" y="505" width="120" height="60" as="geometry" />
        </mxCell>
        <mxCell id="ZSXGiZuAVmpcLqcphuI8-26" style="edgeStyle=orthogonalEdgeStyle;rounded=0;orthogonalLoop=1;jettySize=auto;html=1;entryX=1;entryY=0.5;entryDx=0;entryDy=0;" edge="1" parent="WIyWlLk6GJQsqaUBKTNV-1" source="ZSXGiZuAVmpcLqcphuI8-9" target="ZSXGiZuAVmpcLqcphuI8-12">
          <mxGeometry relative="1" as="geometry">
            <mxPoint x="560" y="880" as="targetPoint" />
            <Array as="points">
              <mxPoint x="570" y="695" />
              <mxPoint x="570" y="885" />
            </Array>
          </mxGeometry>
        </mxCell>
        <mxCell id="ZSXGiZuAVmpcLqcphuI8-9" value="PRINT &quot;GREEN&quot;" style="shape=parallelogram;perimeter=parallelogramPerimeter;whiteSpace=wrap;html=1;fixedSize=1;" vertex="1" parent="WIyWlLk6GJQsqaUBKTNV-1">
          <mxGeometry x="390" y="665" width="120" height="60" as="geometry" />
        </mxCell>
        <mxCell id="ZSXGiZuAVmpcLqcphuI8-25" style="edgeStyle=orthogonalEdgeStyle;rounded=0;orthogonalLoop=1;jettySize=auto;html=1;entryX=0;entryY=0.5;entryDx=0;entryDy=0;" edge="1" parent="WIyWlLk6GJQsqaUBKTNV-1" source="ZSXGiZuAVmpcLqcphuI8-10" target="ZSXGiZuAVmpcLqcphuI8-12">
          <mxGeometry relative="1" as="geometry" />
        </mxCell>
        <mxCell id="ZSXGiZuAVmpcLqcphuI8-10" value="PRINT &quot;That is not a valid colour option&quot;" style="shape=parallelogram;perimeter=parallelogramPerimeter;whiteSpace=wrap;html=1;fixedSize=1;" vertex="1" parent="WIyWlLk6GJQsqaUBKTNV-1">
          <mxGeometry x="165" y="810" width="170" height="80" as="geometry" />
        </mxCell>
        <mxCell id="ZSXGiZuAVmpcLqcphuI8-12" value="END" style="ellipse;whiteSpace=wrap;html=1;" vertex="1" parent="WIyWlLk6GJQsqaUBKTNV-1">
          <mxGeometry x="430" y="860" width="100" height="50" as="geometry" />
        </mxCell>
        <mxCell id="ZSXGiZuAVmpcLqcphuI8-13" style="edgeStyle=orthogonalEdgeStyle;rounded=0;orthogonalLoop=1;jettySize=auto;html=1;entryX=0.442;entryY=0.067;entryDx=0;entryDy=0;entryPerimeter=0;" edge="1" parent="WIyWlLk6GJQsqaUBKTNV-1" source="ZSXGiZuAVmpcLqcphuI8-1" target="ZSXGiZuAVmpcLqcphuI8-6">
          <mxGeometry relative="1" as="geometry" />
        </mxCell>
        <mxCell id="ZSXGiZuAVmpcLqcphuI8-14" style="edgeStyle=orthogonalEdgeStyle;rounded=0;orthogonalLoop=1;jettySize=auto;html=1;entryX=0.558;entryY=0.05;entryDx=0;entryDy=0;entryPerimeter=0;" edge="1" parent="WIyWlLk6GJQsqaUBKTNV-1" source="ZSXGiZuAVmpcLqcphuI8-6" target="ZSXGiZuAVmpcLqcphuI8-3">
          <mxGeometry relative="1" as="geometry" />
        </mxCell>
        <mxCell id="ZSXGiZuAVmpcLqcphuI8-22" style="edgeStyle=orthogonalEdgeStyle;rounded=0;orthogonalLoop=1;jettySize=auto;html=1;entryX=0.5;entryY=0;entryDx=0;entryDy=0;" edge="1" parent="WIyWlLk6GJQsqaUBKTNV-1" source="ZSXGiZuAVmpcLqcphuI8-20" target="ZSXGiZuAVmpcLqcphuI8-5">
          <mxGeometry relative="1" as="geometry" />
        </mxCell>
        <mxCell id="ZSXGiZuAVmpcLqcphuI8-23" style="edgeStyle=orthogonalEdgeStyle;rounded=0;orthogonalLoop=1;jettySize=auto;html=1;entryX=0;entryY=0.5;entryDx=0;entryDy=0;" edge="1" parent="WIyWlLk6GJQsqaUBKTNV-1" source="ZSXGiZuAVmpcLqcphuI8-20" target="ZSXGiZuAVmpcLqcphuI8-8">
          <mxGeometry relative="1" as="geometry" />
        </mxCell>
        <mxCell id="ZSXGiZuAVmpcLqcphuI8-20" value="10 &amp;lt; A AND A &amp;lt; 20?" style="rhombus;whiteSpace=wrap;html=1;" vertex="1" parent="WIyWlLk6GJQsqaUBKTNV-1">
          <mxGeometry x="185" y="470" width="130" height="130" as="geometry" />
        </mxCell>
        <mxCell id="ZSXGiZuAVmpcLqcphuI8-21" style="edgeStyle=orthogonalEdgeStyle;rounded=0;orthogonalLoop=1;jettySize=auto;html=1;entryX=0.515;entryY=0.062;entryDx=0;entryDy=0;entryPerimeter=0;" edge="1" parent="WIyWlLk6GJQsqaUBKTNV-1" source="ZSXGiZuAVmpcLqcphuI8-4" target="ZSXGiZuAVmpcLqcphuI8-20">
          <mxGeometry relative="1" as="geometry" />
        </mxCell>
        <mxCell id="ZSXGiZuAVmpcLqcphuI8-29" value="&lt;div&gt;No&lt;/div&gt;" style="rounded=0;whiteSpace=wrap;html=1;" vertex="1" parent="WIyWlLk6GJQsqaUBKTNV-1">
          <mxGeometry x="200" y="770" width="40" height="30" as="geometry" />
        </mxCell>
        <mxCell id="ZSXGiZuAVmpcLqcphuI8-30" value="Yes" style="rounded=0;whiteSpace=wrap;html=1;" vertex="1" parent="WIyWlLk6GJQsqaUBKTNV-1">
          <mxGeometry x="330" y="660" width="40" height="30" as="geometry" />
        </mxCell>
        <mxCell id="ZSXGiZuAVmpcLqcphuI8-32" value="Yes" style="rounded=0;whiteSpace=wrap;html=1;" vertex="1" parent="WIyWlLk6GJQsqaUBKTNV-1">
          <mxGeometry x="330" y="490" width="40" height="30" as="geometry" />
        </mxCell>
        <mxCell id="ZSXGiZuAVmpcLqcphuI8-33" value="Yes" style="rounded=0;whiteSpace=wrap;html=1;" vertex="1" parent="WIyWlLk6GJQsqaUBKTNV-1">
          <mxGeometry x="335" y="340" width="40" height="30" as="geometry" />
        </mxCell>
        <mxCell id="ZSXGiZuAVmpcLqcphuI8-34" value="&lt;div&gt;No&lt;/div&gt;" style="rounded=0;whiteSpace=wrap;html=1;" vertex="1" parent="WIyWlLk6GJQsqaUBKTNV-1">
          <mxGeometry x="190" y="600" width="40" height="30" as="geometry" />
        </mxCell>
        <mxCell id="ZSXGiZuAVmpcLqcphuI8-35" value="&lt;div&gt;No&lt;/div&gt;" style="rounded=0;whiteSpace=wrap;html=1;" vertex="1" parent="WIyWlLk6GJQsqaUBKTNV-1">
          <mxGeometry x="200" y="440" width="40" height="30" as="geometry" />
        </mxCell>
      </root>
    </mxGraphModel>
  </diagram>
</mxfile>
